# xmcd
#
# Track frame offsets: 
#        150
#        13560
#        27892
#        41455
#        54811
#        68762
#        81865
#        95367
#        107000
#        118908
#        133544
#        145793
#        157300
#        170681
#        182499
#        192587
#        203336
#        214219
#        227341
#        239305
#        252154
#        263230
#        275916
#        288375
#        301858
#        312752
#        322912
#        335146
#
# Disc length: 4615 seconds
#
# Revision: 0
# Processed by: cddbd v1.5.2PL0 Copyright (c) Steve Scherf et al.
# Submitted via: ExactAudioCopyFreeDBPlugin 1.0
#
DISCID=8d12051c
DTITLE=Various Artist - It's Jamaica Jump Blues Time!:  Jamaican Soun
DTITLE=d System Classics, 1941-1962
DYEAR=2015
DGENRE=Rhythm and Blues
TTITLE0=Louis Jordan - Pinetop's Boogie Woogie
TTITLE1=Lionel Hampton - Hey! Ba-Ba-Re-Bop
TTITLE2=Roy Milton - R.M. Blues
TTITLE3=Jack McVea - Open the Door Richard!
TTITLE4=Louis Jordan - Ain't Nobody Here But Us Chickens
TTITLE5=Bull Moose Jackson - Sneaky Pete
TTITLE6=Gene Phillips - Big Legs
TTITLE7=Joe Liggins - Blow Mr. Jackson
TTITLE8=Jesse Price - Frettin' for Some Pettin'
TTITLE9=Joe Liggins - Drippers Blues
TTITLE10=King Perry - Keep a Dollar in Your Pocket
TTITLE11=Gene Phillips - Superstitious Woman
TTITLE12=Felix Gross - Going to Get Straight
TTITLE13=Joe Liggins - Groovy Groove
TTITLE14=Bill Hayes - I'm Just Another Fool
TTITLE15=Pete Peterson - Long Gravy
TTITLE16=Joe Swift - Nightmare
TTITLE17=T-Bone Walker - That Old Feelin' is Gone
TTITLE18=Joe Lutcher - Pasadena Rhumboogie
TTITLE19=Memphis Slim - Country Girl
TTITLE20=Eddie Gorman - Telephone Blues
TTITLE21=Fats Domino - She's My Baby
TTITLE22=Joe Liggins - Daddy on My Mind
TTITLE23=Joe Fritz - I Love You My Darlin'
TTITLE24=Joe Turner - Jumpin' Tonight
TTITLE25=Little Sylvia - Little Boy
TTITLE26=Smiley Lewis - My Baby Was Right
TTITLE27=Wynonie Harris - Lovin' Machine
EXTD=
EXTT0=
EXTT1=
EXTT2=
EXTT3=
EXTT4=
EXTT5=
EXTT6=
EXTT7=
EXTT8=
EXTT9=
EXTT10=
EXTT11=
EXTT12=
EXTT13=
EXTT14=
EXTT15=
EXTT16=
EXTT17=
EXTT18=
EXTT19=
EXTT20=
EXTT21=
EXTT22=
EXTT23=
EXTT24=
EXTT25=
EXTT26=
EXTT27=
PLAYORDER=
